# xmcd
#
# Track frame offsets:
#	150
#	5469
#	19624
#	35637
#	55235
#	67365
#	82185
#	92975
#	106475
#	122481
#	129772
#	151152
#	162778
#	181615
#	193625
#	204267
#	219201
#	238780
#
# Disc length: 3236 seconds
#
# Revision: 0
# Processed by: cddbd v1.5.2PL0 Copyright (c) Steve Scherf et al.
# Submitted via: EasyCDDAExtractor 12.0.1.1
#
DISCID=e90ca212
DTITLE=Agaton Band - Live I Landskrona!
DYEAR=2000
DGENRE=Country
TTITLE0=Agaton Intro
TTITLE1=Magdalena
TTITLE2=Ebbe Från Skanör
TTITLE3=Tänk Vad Tiden Gå
TTITLE4=Rock Around The Clock
TTITLE5=När En Flicka Talar Skånska
TTITLE6=Profitvisan
TTITLE7=Apache
TTITLE8=Hembrännarvisan
TTITLE9=Jag Är Fri
TTITLE10=Här Ska Vi Bo
TTITLE11=Jag Är På Väg
TTITLE12=Tonight The Bottle Let Me Down
TTITLE13=Walk Right Back
TTITLE14=Country Polka
TTITLE15=Lilla Linn
TTITLE16=Rösa Hossor
TTITLE17=Agaton Outro
EXTD=
EXTT0=
EXTT1=
EXTT2=
EXTT3=
EXTT4=
EXTT5=
EXTT6=
EXTT7=
EXTT8=
EXTT9=
EXTT10=
EXTT11=
EXTT12=
EXTT13=
EXTT14=
EXTT15=
EXTT16=
EXTT17=
PLAYORDER=
